<svg xmlns="http://www.w3.org/2000/svg" width="83" height="75" fill="none"><path fill="#9FA628" fill-rule="evenodd" d="M42 51.933C42 53.627 43.22 55 44.725 55h19.826C80.892 55 83 49.764 83 48c0 0-5.373.866-14.774.866h-23.5c-1.506 0-2.726 1.373-2.726 3.067Z" clip-rule="evenodd"/><path fill="#D5D3DD" d="M66.5 20.5v.75c0 .199.079.39.22.53a.75.75 0 0 0 .53.22.75.75 0 0 0 .53-.22.75.75 0 0 0 .22-.53v-.75h-1.5Zm-3 0v.75c0 .199.079.39.22.53a.75.75 0 0 0 .53.22.75.75 0 0 0 .53-.22.75.75 0 0 0 .22-.53v-.75h-1.5Zm-3 0v.75c0 .199.079.39.22.53a.75.75 0 0 0 .53.22.75.75 0 0 0 .53-.22.75.75 0 0 0 .22-.53v-.75h-1.5Zm-3 0v.75c0 .199.079.39.22.53a.75.75 0 0 0 .53.22.75.75 0 0 0 .53-.22.75.75 0 0 0 .22-.53v-.75h-1.5Zm7.5 5v-.75a.75.75 0 0 1 .22-.53.75.75 0 0 1 .53-.22.75.75 0 0 1 .53.22.75.75 0 0 1 .22.53v.75H65Zm-3 0v-.75a.75.75 0 0 1 .22-.53.75.75 0 0 1 .53-.22.75.75 0 0 1 .53.22.75.75 0 0 1 .22.53v.75H62Zm-3 0v-.75a.75.75 0 0 1 .22-.53.75.75 0 0 1 .53-.22.75.75 0 0 1 .53.22.75.75 0 0 1 .22.53v.75H59Zm-3 0v-.75a.75.75 0 0 1 .22-.53.75.75 0 0 1 .53-.22.75.75 0 0 1 .53.22.75.75 0 0 1 .22.53v.75H56Z"/><path fill="#E2CBB5" d="M78.707 52 75 48.292V47a7.033 7.033 0 0 0-1.717-4.575A7.032 7.032 0 0 0 69 40.073V39h1a7 7 0 0 0 7-7v-7a1 1 0 0 0-.293-.707A1 1 0 0 0 76 24a1 1 0 0 0-.707.293A1 1 0 0 0 75 25v.25a.25.25 0 0 1-.073.177.25.25 0 0 1-.177.073.25.25 0 0 1-.177-.073.25.25 0 0 1-.073-.177V25a1 1 0 0 0-.293-.707A1 1 0 0 0 73.5 24a1 1 0 0 0-.707.293A1 1 0 0 0 72.5 25v.25a.25.25 0 0 1-.073.177.25.25 0 0 1-.177.073.25.25 0 0 1-.177-.073.25.25 0 0 1-.073-.177V25a1 1 0 0 0-.293-.707A1 1 0 0 0 71 24a1 1 0 0 0-.707.293A1 1 0 0 0 70 25v6a1 1 0 0 1-.293.707A1 1 0 0 1 69 32v-7H56a2 2 0 0 1-1.414-.586A2 2 0 0 1 56 21h13v-1.565a2 2 0 0 0 1.077-.713 2 2 0 0 0 0-2.444A2 2 0 0 0 69 15.565V13l-1.25-1.25h-15.5L51 13v2.565a2 2 0 0 0-1.077.713 2 2 0 0 0 0 2.444 2 2 0 0 0 1.077.713V32a1 1 0 0 1-.707-.293A1 1 0 0 1 50 31v-6a1 1 0 0 0-.293-.707A1 1 0 0 0 49 24a1 1 0 0 0-.707.293A1 1 0 0 0 48 25v.25a.25.25 0 0 1-.073.177.25.25 0 0 1-.177.073.25.25 0 0 1-.177-.073.25.25 0 0 1-.073-.177V25a1 1 0 0 0-.293-.707A1 1 0 0 0 46.5 24a1 1 0 0 0-.707.293A1 1 0 0 0 45.5 25v.25a.25.25 0 0 1-.073.177.25.25 0 0 1-.177.073.25.25 0 0 1-.177-.073.25.25 0 0 1-.073-.177V25a1 1 0 0 0-.293-.707A1 1 0 0 0 44 24a1 1 0 0 0-.707.293A1 1 0 0 0 43 25v7a7 7 0 0 0 7 7h1v4c0 .662 6.325 4 6.325 4H67a1 1 0 0 1 1 1v4h10.707Z"/><path fill="#fff" d="M57 18.75a2.25 2.25 0 1 0 0-4.5 2.25 2.25 0 0 0 0 4.5Z"/><path fill="#9FA628" d="M57 17.75a1.25 1.25 0 1 0 0-2.5 1.25 1.25 0 0 0 0 2.5Z"/><path fill="#fff" d="M63 18.75a2.25 2.25 0 1 0 0-4.5 2.25 2.25 0 0 0 0 4.5Z"/><path fill="#9FA628" d="M63 17.75a1.25 1.25 0 1 0 0-2.5 1.25 1.25 0 0 0 0 2.5Z"/><path fill="#BF6C35" d="M51 12c0-3.813 2.188-6 6-6h6c3.813 0 6 2.188 6 6v1c-.438 0-.595-.25-.75-.5-.155-.25-.313-.5-.75-.5s-.595.25-.75.5c-.155.25-.313.5-.75.5s-.595-.25-.75-.5c-.155-.25-.313-.5-.75-.5s-.595.25-.75.5c-.155.25-.313.5-.75.5s-.595-.25-.75-.5c-.155-.25-.313-.5-.75-.5s-.595.25-.75.5c-.155.25-.313.5-.75.5s-.595-.25-.75-.5c-.155-.25-.313-.5-.75-.5s-.595.25-.75.5c-.155.25-.313.5-.75.5s-.595-.25-.75-.5c-.155-.25-.313-.5-.75-.5s-.595.25-.75.5c-.155.25-.313.5-.75.5s-.595-.25-.75-.5c-.155-.25-.313-.5-.75-.5s-.595.25-.75.5c-.155.25-.313.5-.75.5v-1Z"/><path fill="#BF6C35" fill-rule="evenodd" d="M0 51.933C0 53.627 1.25 55 2.792 55h20.31C39.84 55 42 49.764 42 48c0 0-5.504.866-15.134.866H2.792C1.25 48.866 0 50.239 0 51.933Z" clip-rule="evenodd"/><path fill="#D5D3DD" d="m28 25-1-2-1 2 1 .5 1-.5Zm-3 0-1-2-1 2 1 .5 1-.5Zm-3 0-1-2-1 2 1 .5 1-.5Zm-3 0-1-2-1 2 1 .5 1-.5Zm-3 0-1-2-1 2 1 .5 1-.5Zm10.5-4-1 2-1-2 1-.5 1 .5Zm-3 0-1 2-1-2 1-.5 1 .5Zm-3 0-1 2-1-2 1-.5 1 .5Zm-3 0-1 2-1-2 1-.5 1 .5Z"/><path fill="#E2CBB5" d="m10.999 41.85-6.03-3.35 6.03-3.35v6.7Z"/><path fill="#E2CBB5" d="m10.999 36.85-6.03-3.35 6.03-3.35v6.7Z"/><path fill="#E2CBB5" d="m10.999 31.85-6.03-3.35 6.03-3.35v6.7Z"/><path fill="#E2CBB5" d="m10.999 26.85-6.03-3.35 6.03-3.35v6.7Z"/><path fill="#9FA628" d="M15 25a2 2 0 0 1-1.414-.586A2 2 0 0 1 15 21h13v-9c0-1.688-.43-3.055-1.25-4.055l1.323-1.323A2.652 2.652 0 0 0 29.5 7a.5.5 0 0 0 .354-.146A.5.5 0 0 0 30 6.5a.5.5 0 0 0-.146-.354A.5.5 0 0 0 29.5 6c-.953 0-1.5-.547-1.5-1.5a.5.5 0 0 0-.146-.354A.5.5 0 0 0 27.5 4a.5.5 0 0 0-.354.146A.5.5 0 0 0 27 4.5c-.01.498.121.988.378 1.415L26.055 7.25C25.055 6.43 23.688 6 22 6h-6c-1.688 0-3.055.43-4.055 1.25l-1.323-1.323A2.653 2.653 0 0 0 11 4.5a.5.5 0 0 0-.146-.354A.5.5 0 0 0 10.5 4a.5.5 0 0 0-.354.146A.5.5 0 0 0 10 4.5C10 5.452 9.453 6 8.5 6a.5.5 0 0 0-.5.5.5.5 0 0 0 .5.5 2.652 2.652 0 0 0 1.415-.378l1.335 1.323C10.43 8.945 10 10.312 10 12v31c0 2.458 5.5 3 6.325 4H26a1 1 0 0 1 1 1v4h10.707L34 48.292V47a7.033 7.033 0 0 0-1.717-4.575A7.032 7.032 0 0 0 28 40.073V40h12.925l-2.895-2.317 3.55-1.183-3.55-1.183L40.925 33H28v-1h12.925l-2.895-2.317 3.55-1.183-3.55-1.183L40.925 25H15Z"/><path fill="#fff" d="M16 18.75a2.25 2.25 0 1 0 0-4.5 2.25 2.25 0 0 0 0 4.5Z"/><path fill="#BF6C35" d="M16 17.75a1.25 1.25 0 1 0 0-2.5 1.25 1.25 0 0 0 0 2.5Z"/><path fill="#fff" d="M22 18.75a2.25 2.25 0 1 0 0-4.5 2.25 2.25 0 0 0 0 4.5Z"/><path fill="#BF6C35" d="M22 17.75a1.25 1.25 0 1 0 0-2.5 1.25 1.25 0 0 0 0 2.5Z"/><path fill="#9FA628" d="M11.12 40H13l3.5 7H13a.912.912 0 0 0-.664.293 1.034 1.034 0 0 0-.276.707v4H2l3.483-3.708V47a7.302 7.302 0 0 1 1.613-4.575c1.035-1.271 2.462-2.106 4.025-2.352V40Z"/><path fill="#E2CBB5" d="M52.12 40H54l3.5 7H54a.912.912 0 0 0-.664.293 1.034 1.034 0 0 0-.276.707v4H43l3.483-3.708V47a7.301 7.301 0 0 1 1.613-4.575c1.035-1.271 2.462-2.106 4.025-2.352V40Z"/></svg>